REM DIRINDEX 1\2\6,1\2\7,1\2\8,1\2\9,1\3\10,1\3\11,1\4\12,1\4\13,1\4\14,1\5\15,1\5\16,1\5\17
REM DIRNAME folder01,folder02,folder03,folder04,folder05,folder06,folder07,folder08,folder09,folder10,folder11,folder12,folder13,folder14,folder15,folder16,folder17
TITLE ""
FILE "1400_2_sec06_0585_0600.mp3" MP3
  TRACK 01 AUDIO
    TITLE "0:"
    INDEX 01 00:00:00
  TRACK 02 AUDIO
    TITLE "13:cjc029_2759"
    INDEX 01 00:00:21
  TRACK 03 AUDIO
    TITLE "0:"
    INDEX 01 00:01:28
  TRACK 04 AUDIO
    TITLE "14:cjc029_2760"
    INDEX 01 00:01:34
  TRACK 05 AUDIO
    TITLE "0:"
    INDEX 01 00:03:39
  TRACK 06 AUDIO
    TITLE "13:cjc029_2761"
    INDEX 01 00:04:19
  TRACK 07 AUDIO
    TITLE "0:"
    INDEX 01 00:05:30
  TRACK 08 AUDIO
    TITLE "14:cjc029_2762"
    INDEX 01 00:05:32
  TRACK 09 AUDIO
    TITLE "0:"
    INDEX 01 00:07:54
  TRACK 10 AUDIO
    TITLE "13:cjc029_2763"
    INDEX 01 00:08:38
  TRACK 11 AUDIO
    TITLE "0:"
    INDEX 01 00:09:49
  TRACK 12 AUDIO
    TITLE "14:cjc029_2764"
    INDEX 01 00:09:53
  TRACK 13 AUDIO
    TITLE "0:"
    INDEX 01 00:12:18
  TRACK 14 AUDIO
    TITLE "13:cjc029_2765"
    INDEX 01 00:13:04
  TRACK 15 AUDIO
    TITLE "0:"
    INDEX 01 00:14:09
  TRACK 16 AUDIO
    TITLE "14:cjc029_2766"
    INDEX 01 00:14:11
  TRACK 17 AUDIO
    TITLE "0:"
    INDEX 01 00:17:06
  TRACK 18 AUDIO
    TITLE "13:cjc029_2767"
    INDEX 01 00:17:70
  TRACK 19 AUDIO
    TITLE "0:"
    INDEX 01 00:19:24
  TRACK 20 AUDIO
    TITLE "14:cjc029_2768"
    INDEX 01 00:19:30
  TRACK 21 AUDIO
    TITLE "0:"
    INDEX 01 00:20:49
  TRACK 22 AUDIO
    TITLE "13:cjc029_2769"
    INDEX 01 00:21:31
  TRACK 23 AUDIO
    TITLE "0:"
    INDEX 01 00:22:60
  TRACK 24 AUDIO
    TITLE "14:cjc029_2770"
    INDEX 01 00:22:66
  TRACK 25 AUDIO
    TITLE "0:"
    INDEX 01 00:24:06
  TRACK 26 AUDIO
    TITLE "13:cjc029_2771"
    INDEX 01 00:24:67
  TRACK 27 AUDIO
    TITLE "0:"
    INDEX 01 00:26:13
  TRACK 28 AUDIO
    TITLE "14:cjc029_2772"
    INDEX 01 00:26:18
  TRACK 29 AUDIO
    TITLE "0:"
    INDEX 01 00:28:72
  TRACK 30 AUDIO
    TITLE "13:cjc029_2773"
    INDEX 01 00:29:54
  TRACK 31 AUDIO
    TITLE "0:"
    INDEX 01 00:30:63
  TRACK 32 AUDIO
    TITLE "14:cjc029_2774"
    INDEX 01 00:30:71
  TRACK 33 AUDIO
    TITLE "0:"
    INDEX 01 00:32:13
  TRACK 34 AUDIO
    TITLE "13:cjc029_2775"
    INDEX 01 00:32:70
  TRACK 35 AUDIO
    TITLE "0:"
    INDEX 01 00:34:12
  TRACK 36 AUDIO
    TITLE "14:cjc029_2776"
    INDEX 01 00:34:20
  TRACK 37 AUDIO
    TITLE "0:"
    INDEX 01 00:35:45
  TRACK 38 AUDIO
    TITLE "13:cjc029_2777"
    INDEX 01 00:36:29
  TRACK 39 AUDIO
    TITLE "0:"
    INDEX 01 00:37:42
  TRACK 40 AUDIO
    TITLE "14:cjc029_2778"
    INDEX 01 00:37:46
  TRACK 41 AUDIO
    TITLE "0:"
    INDEX 01 00:40:15
  TRACK 42 AUDIO
    TITLE "13:cjc029_2779"
    INDEX 01 00:40:73
  TRACK 43 AUDIO
    TITLE "0:"
    INDEX 01 00:42:10
  TRACK 44 AUDIO
    TITLE "14:cjc029_2780"
    INDEX 01 00:42:12
  TRACK 45 AUDIO
    TITLE "0:"
    INDEX 01 00:43:39
  TRACK 46 AUDIO
    TITLE "13:cjc029_2781"
    INDEX 01 00:44:20
  TRACK 47 AUDIO
    TITLE "0:"
    INDEX 01 00:45:51
  TRACK 48 AUDIO
    TITLE "14:cjc029_2782"
    INDEX 01 00:45:55
  TRACK 49 AUDIO
    TITLE "0:"
    INDEX 01 00:49:18
  TRACK 50 AUDIO
    TITLE "13:cjc029_2783"
    INDEX 01 00:50:05
  TRACK 51 AUDIO
    TITLE "0:"
    INDEX 01 00:51:22
  TRACK 52 AUDIO
    TITLE "14:cjc029_2784"
    INDEX 01 00:51:28
  TRACK 53 AUDIO
    TITLE "0:"
    INDEX 01 00:53:72
  TRACK 54 AUDIO
    TITLE "13:cjc029_2785"
    INDEX 01 00:54:56
  TRACK 55 AUDIO
    TITLE "0:"
    INDEX 01 00:56:12
  TRACK 56 AUDIO
    TITLE "14:cjc029_2786"
    INDEX 01 00:56:18
  TRACK 57 AUDIO
    TITLE "0:"
    INDEX 01 00:58:58
  TRACK 58 AUDIO
    TITLE "13:cjc029_2787"
    INDEX 01 00:59:39
  TRACK 59 AUDIO
    TITLE "0:"
    INDEX 01 01:00:66
  TRACK 60 AUDIO
    TITLE "14:cjc029_2788"
    INDEX 01 01:00:72
  TRACK 61 AUDIO
    TITLE "0:"
    INDEX 01 01:02:28
  TRACK 62 AUDIO
    TITLE "13:cjc029_2789"
    INDEX 01 01:03:08
  TRACK 63 AUDIO
    TITLE "0:"
    INDEX 01 01:04:43
  TRACK 64 AUDIO
    TITLE "14:cjc029_2790"
    INDEX 01 01:04:47
  TRACK 65 AUDIO
    TITLE "0:"
    INDEX 01 01:07:21
